<svg xmlns="http://www.w3.org/2000/svg" version="1.1" xmlns:xlink="http://www.w3.org/1999/xlink" xmlns:svgjs="http://svgjs.dev/svgjs" width="1500" height="496" viewBox="0 0 1500 496"><g transform="matrix(1,0,0,1,-0.9090909090911055,-0.38336349190166175)"><svg viewBox="0 0 396 131" data-background-color="#ffffff" preserveAspectRatio="xMidYMid meet" height="496" width="1500" xmlns="http://www.w3.org/2000/svg" xmlns:xlink="http://www.w3.org/1999/xlink"><g id="tight-bounds" transform="matrix(1,0,0,1,0.24000000000003752,0.10125124483693071)"><svg viewBox="0 0 395.5199999999999 130.79749751032617" height="130.79749751032617" width="395.5199999999999"><g><svg viewBox="0 0 648.5942041121275 214.48851839999998" height="130.79749751032617" width="395.5199999999999"><g transform="matrix(1,0,0,1,253.07420411212752,0.4489726673474195)"><svg viewBox="0 0 395.52000000000004 213.59057306530514" height="213.59057306530514" width="395.52000000000004"><g id="textblocktransform"><svg viewBox="0 0 395.52000000000004 213.59057306530514" height="213.59057306530514" width="395.52000000000004" id="textblock"><g><svg viewBox="0 0 395.52000000000004 163.44603310852239" height="163.44603310852239" width="395.52000000000004"><g transform="matrix(1,0,0,1,0,0)"><svg width="395.52000000000004" viewBox="0.9 -33.7 81.55 33.7" height="163.44603310852239" data-palette-color="#19191a"><path d="M23.15-33.7L23.15-30.15 14.05-30.15 14.05 0 10 0 10-30.15 0.9-30.15 0.9-33.7 23.15-33.7ZM38.15 0L38.15 0 27.95 0 27.95-33.7 37.95-33.7Q45.4-33.7 50.17-29.08 54.95-24.45 54.95-17.1L54.95-17.1Q54.95-9.8 50.52-4.9 46.1 0 38.15 0ZM37.9-30.1L37.9-30.1 32.05-30.1 32.05-3.55 38.1-3.55Q44.35-3.55 47.55-7.43 50.75-11.3 50.75-17.1L50.75-17.1Q50.75-22.6 47.17-26.35 43.6-30.1 37.9-30.1ZM70.25-12.4L70.25-12.4 65.05-12.4 65.05 0 61 0 61-33.7 69.85-33.7Q75.7-33.7 79.07-30.68 82.45-27.65 82.45-22.85L82.45-22.85Q82.45-18.35 79.1-15.38 75.75-12.4 70.25-12.4ZM69.9-30.25L69.9-30.25 65.05-30.25 65.05-15.85 70.25-15.85Q74.05-15.85 76.2-17.82 78.35-19.8 78.35-22.85L78.35-22.85Q78.35-26.25 76.15-28.25 73.95-30.25 69.9-30.25Z" opacity="1" transform="matrix(1,0,0,1,0,0)" fill="#19191a" class="wordmark-text-0" data-fill-palette-color="primary" id="text-0"></path></svg></g></svg></g><g transform="matrix(1,0,0,1,0,202.03171882064993)"><svg viewBox="0 0 232.20979200000002 11.558854244655201" height="11.558854244655201" width="232.20979200000002"><g transform="matrix(1,0,0,1,0,0)"><svg width="232.20979200000002" viewBox="4 -35.6 933.04 46.45" height="11.558854244655201" data-palette-color="#23ed0e"><path d="M7.45-21.55L4.95-21.55 4.15-29.9 4-34.5 8.4-34.5 8.25-29.9 7.45-21.55ZM16.25-21.55L13.75-21.55 12.95-29.9 12.8-34.5 17.2-34.5 17.05-29.9 16.25-21.55ZM35.25 0L31.05 0 31.05-12.7 21.2-32.8 25.65-32.8 29.9-23.55Q30.7-21.75 31.45-20 32.2-18.25 33.05-16.4L33.05-16.4 33.25-16.4Q34.1-18.25 34.95-20 35.8-21.75 36.55-23.55L36.55-23.55 40.75-32.8 45.1-32.8 35.25-12.7 35.25 0ZM56.55 0.6L56.55 0.6Q54.3 0.6 52.27-0.25 50.25-1.1 48.7-2.73 47.15-4.35 46.22-6.73 45.3-9.1 45.3-12.1L45.3-12.1Q45.3-15.15 46.22-17.53 47.15-19.9 48.7-21.55 50.25-23.2 52.27-24.05 54.3-24.9 56.55-24.9L56.55-24.9Q58.8-24.9 60.82-24.05 62.85-23.2 64.4-21.55 65.95-19.9 66.87-17.53 67.8-15.15 67.8-12.1L67.8-12.1Q67.8-9.1 66.87-6.73 65.95-4.35 64.4-2.73 62.85-1.1 60.82-0.25 58.8 0.6 56.55 0.6ZM56.55-2.8L56.55-2.8Q58.1-2.8 59.4-3.48 60.7-4.15 61.62-5.38 62.55-6.6 63.05-8.3 63.55-10 63.55-12.1L63.55-12.1Q63.55-14.2 63.05-15.93 62.55-17.65 61.62-18.9 60.7-20.15 59.4-20.83 58.1-21.5 56.55-21.5L56.55-21.5Q55-21.5 53.7-20.83 52.4-20.15 51.47-18.9 50.55-17.65 50.05-15.93 49.55-14.2 49.55-12.1L49.55-12.1Q49.55-10 50.05-8.3 50.55-6.6 51.47-5.38 52.4-4.15 53.7-3.48 55-2.8 56.55-2.8ZM81.29 0.6L81.29 0.6Q77.39 0.6 75.62-1.8 73.84-4.2 73.84-8.9L73.84-8.9 73.84-24.3 77.99-24.3 77.99-9.45Q77.99-6 79.07-4.48 80.14-2.95 82.54-2.95L82.54-2.95Q84.44-2.95 85.89-3.93 87.34-4.9 89.09-7.05L89.09-7.05 89.09-24.3 93.19-24.3 93.19 0 89.79 0 89.44-3.8 89.29-3.8Q87.59-1.8 85.72-0.6 83.84 0.6 81.29 0.6ZM105.49 0L101.39 0 101.39-24.3 104.79-24.3 105.14-19.9 105.29-19.9Q106.54-22.2 108.32-23.55 110.09-24.9 112.19-24.9L112.19-24.9Q113.64-24.9 114.79-24.4L114.79-24.4 113.99-20.8Q113.39-21 112.89-21.1 112.39-21.2 111.64-21.2L111.64-21.2Q110.09-21.2 108.42-19.95 106.74-18.7 105.49-15.6L105.49-15.6 105.49 0ZM133.29 0L129.14 0 129.14-32.8 138.49-32.8Q141.24-32.8 143.51-32.3 145.79-31.8 147.39-30.68 148.99-29.55 149.89-27.7 150.79-25.85 150.79-23.15L150.79-23.15Q150.79-20.55 149.91-18.65 149.04-16.75 147.44-15.5 145.84-14.25 143.61-13.63 141.39-13 138.69-13L138.69-13 133.29-13 133.29 0ZM133.29-29.45L133.29-16.4 138.19-16.4Q142.49-16.4 144.56-18.03 146.64-19.65 146.64-23.15L146.64-23.15Q146.64-26.7 144.46-28.08 142.29-29.45 137.99-29.45L137.99-29.45 133.29-29.45ZM161.13 0L157.03 0 157.03-24.3 160.43-24.3 160.78-19.9 160.93-19.9Q162.18-22.2 163.96-23.55 165.73-24.9 167.83-24.9L167.83-24.9Q169.28-24.9 170.43-24.4L170.43-24.4 169.63-20.8Q169.03-21 168.53-21.1 168.03-21.2 167.28-21.2L167.28-21.2Q165.73-21.2 164.06-19.95 162.38-18.7 161.13-15.6L161.13-15.6 161.13 0ZM183.33 0.6L183.33 0.6Q181.08 0.6 179.06-0.25 177.03-1.1 175.48-2.73 173.93-4.35 173.01-6.73 172.08-9.1 172.08-12.1L172.08-12.1Q172.08-15.15 173.01-17.53 173.93-19.9 175.48-21.55 177.03-23.2 179.06-24.05 181.08-24.9 183.33-24.9L183.33-24.9Q185.58-24.9 187.61-24.05 189.63-23.2 191.18-21.55 192.73-19.9 193.66-17.53 194.58-15.15 194.58-12.1L194.58-12.1Q194.58-9.1 193.66-6.73 192.73-4.35 191.18-2.73 189.63-1.1 187.61-0.25 185.58 0.6 183.33 0.6ZM183.33-2.8L183.33-2.8Q184.88-2.8 186.18-3.48 187.48-4.15 188.41-5.38 189.33-6.6 189.83-8.3 190.33-10 190.33-12.1L190.33-12.1Q190.33-14.2 189.83-15.93 189.33-17.65 188.41-18.9 187.48-20.15 186.18-20.83 184.88-21.5 183.33-21.5L183.33-21.5Q181.78-21.5 180.48-20.83 179.18-20.15 178.26-18.9 177.33-17.65 176.83-15.93 176.33-14.2 176.33-12.1L176.33-12.1Q176.33-10 176.83-8.3 177.33-6.6 178.26-5.38 179.18-4.15 180.48-3.48 181.78-2.8 183.33-2.8ZM198.48 10.85L198.48 10.85Q197.33 10.85 196.43 10.65 195.53 10.45 194.88 10.2L194.88 10.2 195.73 7.1Q196.18 7.25 196.78 7.38 197.38 7.5 198.03 7.5L198.03 7.5Q199.83 7.5 200.43 6.25 201.03 5 201.03 2.75L201.03 2.75 201.03-24.3 205.13-24.3 205.13 2.75Q205.13 6.45 203.63 8.65 202.13 10.85 198.48 10.85ZM203.13-29.3L203.13-29.3Q201.93-29.3 201.1-30.05 200.28-30.8 200.28-31.95L200.28-31.95Q200.28-33.15 201.1-33.88 201.93-34.6 203.13-34.6L203.13-34.6Q204.28-34.6 205.1-33.88 205.93-33.15 205.93-31.95L205.93-31.95Q205.93-30.8 205.1-30.05 204.28-29.3 203.13-29.3ZM223.18 0.6L223.18 0.6Q220.73 0.6 218.6-0.28 216.48-1.15 214.9-2.78 213.33-4.4 212.43-6.75 211.53-9.1 211.53-12.1L211.53-12.1Q211.53-15.1 212.45-17.48 213.38-19.85 214.9-21.5 216.43-23.15 218.38-24.03 220.33-24.9 222.43-24.9L222.43-24.9Q224.73-24.9 226.55-24.1 228.38-23.3 229.6-21.8 230.83-20.3 231.48-18.2 232.13-16.1 232.13-13.5L232.13-13.5Q232.13-12.85 232.1-12.23 232.08-11.6 231.98-11.15L231.98-11.15 215.58-11.15Q215.83-7.25 218-4.98 220.18-2.7 223.68-2.7L223.68-2.7Q225.43-2.7 226.9-3.23 228.38-3.75 229.73-4.6L229.73-4.6 231.18-1.9Q229.58-0.9 227.63-0.15 225.68 0.6 223.18 0.6ZM215.53-14.1L215.53-14.1 228.53-14.1Q228.53-17.8 226.95-19.73 225.38-21.65 222.53-21.65L222.53-21.65Q221.23-21.65 220.05-21.15 218.88-20.65 217.93-19.68 216.98-18.7 216.35-17.3 215.73-15.9 215.53-14.1ZM247.72 0.6L247.72 0.6Q245.32 0.6 243.22-0.25 241.12-1.1 239.6-2.73 238.07-4.35 237.2-6.73 236.32-9.1 236.32-12.1L236.32-12.1Q236.32-15.15 237.27-17.53 238.22-19.9 239.82-21.55 241.42-23.2 243.55-24.05 245.67-24.9 248.02-24.9L248.02-24.9Q250.42-24.9 252.12-24.05 253.82-23.2 255.12-22.05L255.12-22.05 253.02-19.35Q251.97-20.3 250.8-20.9 249.62-21.5 248.17-21.5L248.17-21.5Q246.52-21.5 245.12-20.83 243.72-20.15 242.72-18.9 241.72-17.65 241.15-15.93 240.57-14.2 240.57-12.1L240.57-12.1Q240.57-10 241.12-8.3 241.67-6.6 242.65-5.38 243.62-4.15 245.02-3.48 246.42-2.8 248.07-2.8L248.07-2.8Q249.77-2.8 251.2-3.53 252.62-4.25 253.77-5.25L253.77-5.25 255.57-2.5Q253.92-1.05 251.92-0.23 249.92 0.6 247.72 0.6ZM268.07 0.6L268.07 0.6Q266.12 0.6 264.8 0 263.47-0.6 262.65-1.65 261.82-2.7 261.47-4.2 261.12-5.7 261.12-7.5L261.12-7.5 261.12-20.95 257.52-20.95 257.52-24.05 261.32-24.3 261.82-31.1 265.27-31.1 265.27-24.3 271.82-24.3 271.82-20.95 265.27-20.95 265.27-7.45Q265.27-5.2 266.1-3.98 266.92-2.75 269.02-2.75L269.02-2.75Q269.67-2.75 270.42-2.95 271.17-3.15 271.77-3.4L271.77-3.4 272.57-0.3Q271.57 0.05 270.4 0.33 269.22 0.6 268.07 0.6ZM283.17 0.6L283.17 0.6Q280.57 0.6 278.22-0.35 275.87-1.3 274.12-2.75L274.12-2.75 276.17-5.5Q277.77-4.2 279.44-3.4 281.12-2.6 283.32-2.6L283.32-2.6Q285.72-2.6 286.92-3.7 288.12-4.8 288.12-6.4L288.12-6.4Q288.12-7.35 287.62-8.05 287.12-8.75 286.34-9.28 285.57-9.8 284.57-10.2 283.57-10.6 282.57-11L282.57-11Q281.27-11.45 279.97-12.03 278.67-12.6 277.64-13.43 276.62-14.25 275.97-15.35 275.32-16.45 275.32-18L275.32-18Q275.32-19.45 275.89-20.73 276.47-22 277.54-22.93 278.62-23.85 280.17-24.38 281.72-24.9 283.67-24.9L283.67-24.9Q285.97-24.9 287.89-24.1 289.82-23.3 291.22-22.15L291.22-22.15 289.27-19.55Q288.02-20.5 286.67-21.1 285.32-21.7 283.72-21.7L283.72-21.7Q281.42-21.7 280.34-20.65 279.27-19.6 279.27-18.2L279.27-18.2Q279.27-17.35 279.72-16.73 280.17-16.1 280.92-15.63 281.67-15.15 282.64-14.78 283.62-14.4 284.67-14L284.67-14Q285.97-13.5 287.29-12.95 288.62-12.4 289.67-11.58 290.72-10.75 291.39-9.55 292.07-8.35 292.07-6.65L292.07-6.65Q292.07-5.15 291.49-3.85 290.92-2.55 289.79-1.55 288.67-0.55 286.99 0.03 285.32 0.6 283.17 0.6ZM297.02 8.5L297.02 8.5 296.02 6.1Q298.17 5.15 299.37 3.58 300.56 2 300.52 0L300.52 0Q300.37 0.05 300.02 0.05L300.02 0.05Q298.81 0.05 297.94-0.68 297.06-1.4 297.06-2.8L297.06-2.8Q297.06-4.15 297.97-4.93 298.87-5.7 300.12-5.7L300.12-5.7Q301.72-5.7 302.64-4.4 303.56-3.1 303.56-0.85L303.56-0.85Q303.56 2.4 301.81 4.8 300.06 7.2 297.02 8.5ZM332.71 0.6L332.71 0.6Q329.61 0.6 327.04-0.6 324.46-1.8 322.61-4.03 320.76-6.25 319.74-9.43 318.71-12.6 318.71-16.55L318.71-16.55Q318.71-20.5 319.74-23.63 320.76-26.75 322.61-28.93 324.46-31.1 327.04-32.25 329.61-33.4 332.71-33.4L332.71-33.4Q335.81-33.4 338.38-32.23 340.96-31.05 342.84-28.88 344.71-26.7 345.74-23.58 346.76-20.45 346.76-16.55L346.76-16.55Q346.76-12.6 345.74-9.43 344.71-6.25 342.84-4.03 340.96-1.8 338.38-0.6 335.81 0.6 332.71 0.6ZM332.71-3.05L332.71-3.05Q334.91-3.05 336.69-4 338.46-4.95 339.74-6.73 341.01-8.5 341.71-10.98 342.41-13.45 342.41-16.55L342.41-16.55Q342.41-19.6 341.71-22.05 341.01-24.5 339.74-26.2 338.46-27.9 336.69-28.83 334.91-29.75 332.71-29.75L332.71-29.75Q330.51-29.75 328.74-28.83 326.96-27.9 325.69-26.2 324.41-24.5 323.71-22.05 323.01-19.6 323.01-16.55L323.01-16.55Q323.01-13.45 323.71-10.98 324.41-8.5 325.69-6.73 326.96-4.95 328.74-4 330.51-3.05 332.71-3.05ZM360.51 0.6L360.51 0.6Q356.61 0.6 354.83-1.8 353.06-4.2 353.06-8.9L353.06-8.9 353.06-24.3 357.21-24.3 357.21-9.45Q357.21-6 358.28-4.48 359.36-2.95 361.76-2.95L361.76-2.95Q363.66-2.95 365.11-3.93 366.56-4.9 368.31-7.05L368.31-7.05 368.31-24.3 372.41-24.3 372.41 0 369.01 0 368.66-3.8 368.51-3.8Q366.81-1.8 364.93-0.6 363.06 0.6 360.51 0.6ZM384.7 0L380.61 0 380.61-24.3 384-24.3 384.36-19.9 384.5-19.9Q385.75-22.2 387.53-23.55 389.31-24.9 391.4-24.9L391.4-24.9Q392.86-24.9 394-24.4L394-24.4 393.2-20.8Q392.61-21 392.11-21.1 391.61-21.2 390.86-21.2L390.86-21.2Q389.31-21.2 387.63-19.95 385.95-18.7 384.7-15.6L384.7-15.6 384.7 0ZM412.5 0L408.35 0 408.35-32.8 417.7-32.8Q420.45-32.8 422.73-32.3 425-31.8 426.6-30.68 428.2-29.55 429.1-27.7 430-25.85 430-23.15L430-23.15Q430-20.55 429.13-18.65 428.25-16.75 426.65-15.5 425.05-14.25 422.83-13.63 420.6-13 417.9-13L417.9-13 412.5-13 412.5 0ZM412.5-29.45L412.5-16.4 417.4-16.4Q421.7-16.4 423.78-18.03 425.85-19.65 425.85-23.15L425.85-23.15Q425.85-26.7 423.68-28.08 421.5-29.45 417.2-29.45L417.2-29.45 412.5-29.45ZM439.7 0.6L439.7 0.6Q436.65 0.6 434.62-1.2 432.6-3 432.6-6.3L432.6-6.3Q432.6-10.3 436.15-12.43 439.7-14.55 447.5-15.4L447.5-15.4Q447.5-16.55 447.27-17.65 447.05-18.75 446.5-19.6 445.95-20.45 444.97-20.98 444-21.5 442.5-21.5L442.5-21.5Q440.4-21.5 438.55-20.7 436.7-19.9 435.25-18.9L435.25-18.9 433.65-21.75Q435.35-22.85 437.8-23.88 440.25-24.9 443.2-24.9L443.2-24.9Q447.65-24.9 449.65-22.18 451.65-19.45 451.65-14.9L451.65-14.9 451.65 0 448.25 0 447.9-2.9 447.75-2.9Q446-1.45 444-0.43 442 0.6 439.7 0.6ZM440.9-2.7L440.9-2.7Q442.65-2.7 444.2-3.53 445.75-4.35 447.5-5.95L447.5-5.95 447.5-12.7Q444.45-12.3 442.37-11.75 440.3-11.2 439.02-10.45 437.75-9.7 437.17-8.72 436.6-7.75 436.6-6.6L436.6-6.6Q436.6-4.5 437.85-3.6 439.1-2.7 440.9-2.7ZM465.65 0.6L465.65 0.6Q463.05 0.6 460.7-0.35 458.35-1.3 456.6-2.75L456.6-2.75 458.65-5.5Q460.25-4.2 461.92-3.4 463.6-2.6 465.8-2.6L465.8-2.6Q468.2-2.6 469.4-3.7 470.6-4.8 470.6-6.4L470.6-6.4Q470.6-7.35 470.1-8.05 469.6-8.75 468.82-9.28 468.05-9.8 467.05-10.2 466.05-10.6 465.05-11L465.05-11Q463.75-11.45 462.45-12.03 461.15-12.6 460.12-13.43 459.1-14.25 458.45-15.35 457.8-16.45 457.8-18L457.8-18Q457.8-19.45 458.37-20.73 458.95-22 460.02-22.93 461.1-23.85 462.65-24.38 464.2-24.9 466.15-24.9L466.15-24.9Q468.45-24.9 470.37-24.1 472.3-23.3 473.7-22.15L473.7-22.15 471.75-19.55Q470.5-20.5 469.15-21.1 467.8-21.7 466.2-21.7L466.2-21.7Q463.9-21.7 462.82-20.65 461.75-19.6 461.75-18.2L461.75-18.2Q461.75-17.35 462.2-16.73 462.65-16.1 463.4-15.63 464.15-15.15 465.12-14.78 466.1-14.4 467.15-14L467.15-14Q468.45-13.5 469.77-12.95 471.1-12.4 472.15-11.58 473.2-10.75 473.87-9.55 474.55-8.35 474.55-6.65L474.55-6.65Q474.55-5.15 473.97-3.85 473.4-2.55 472.27-1.55 471.15-0.55 469.47 0.03 467.8 0.6 465.65 0.6ZM486.59 0.6L486.59 0.6Q483.99 0.6 481.64-0.35 479.29-1.3 477.54-2.75L477.54-2.75 479.59-5.5Q481.19-4.2 482.87-3.4 484.54-2.6 486.74-2.6L486.74-2.6Q489.14-2.6 490.34-3.7 491.54-4.8 491.54-6.4L491.54-6.4Q491.54-7.35 491.04-8.05 490.54-8.75 489.77-9.28 488.99-9.8 487.99-10.2 486.99-10.6 485.99-11L485.99-11Q484.69-11.45 483.39-12.03 482.09-12.6 481.07-13.43 480.04-14.25 479.39-15.35 478.74-16.45 478.74-18L478.74-18Q478.74-19.45 479.32-20.73 479.89-22 480.97-22.93 482.04-23.85 483.59-24.38 485.14-24.9 487.09-24.9L487.09-24.9Q489.39-24.9 491.32-24.1 493.24-23.3 494.64-22.15L494.64-22.15 492.69-19.55Q491.44-20.5 490.09-21.1 488.74-21.7 487.14-21.7L487.14-21.7Q484.84-21.7 483.77-20.65 482.69-19.6 482.69-18.2L482.69-18.2Q482.69-17.35 483.14-16.73 483.59-16.1 484.34-15.63 485.09-15.15 486.07-14.78 487.04-14.4 488.09-14L488.09-14Q489.39-13.5 490.72-12.95 492.04-12.4 493.09-11.58 494.14-10.75 494.82-9.55 495.49-8.35 495.49-6.65L495.49-6.65Q495.49-5.15 494.92-3.85 494.34-2.55 493.22-1.55 492.09-0.55 490.42 0.03 488.74 0.6 486.59 0.6ZM505.29 0L501.19 0 501.19-24.3 505.29-24.3 505.29 0ZM503.29-29.3L503.29-29.3Q502.09-29.3 501.27-30.05 500.44-30.8 500.44-31.95L500.44-31.95Q500.44-33.15 501.27-33.88 502.09-34.6 503.29-34.6L503.29-34.6Q504.49-34.6 505.32-33.88 506.14-33.15 506.14-31.95L506.14-31.95Q506.14-30.8 505.32-30.05 504.49-29.3 503.29-29.3ZM522.94 0.6L522.94 0.6Q520.69 0.6 518.66-0.25 516.64-1.1 515.09-2.73 513.54-4.35 512.61-6.73 511.69-9.1 511.69-12.1L511.69-12.1Q511.69-15.15 512.61-17.53 513.54-19.9 515.09-21.55 516.64-23.2 518.66-24.05 520.69-24.9 522.94-24.9L522.94-24.9Q525.19-24.9 527.21-24.05 529.24-23.2 530.79-21.55 532.34-19.9 533.26-17.53 534.19-15.15 534.19-12.1L534.19-12.1Q534.19-9.1 533.26-6.73 532.34-4.35 530.79-2.73 529.24-1.1 527.21-0.25 525.19 0.6 522.94 0.6ZM522.94-2.8L522.94-2.8Q524.49-2.8 525.79-3.48 527.09-4.15 528.01-5.38 528.94-6.6 529.44-8.3 529.94-10 529.94-12.1L529.94-12.1Q529.94-14.2 529.44-15.93 528.94-17.65 528.01-18.9 527.09-20.15 525.79-20.83 524.49-21.5 522.94-21.5L522.94-21.5Q521.39-21.5 520.09-20.83 518.79-20.15 517.86-18.9 516.94-17.65 516.44-15.93 515.94-14.2 515.94-12.1L515.94-12.1Q515.94-10 516.44-8.3 516.94-6.6 517.86-5.38 518.79-4.15 520.09-3.48 521.39-2.8 522.94-2.8ZM544.69 0L540.59 0 540.59-24.3 543.99-24.3 544.34-20.8 544.49-20.8Q546.24-22.55 548.16-23.73 550.09-24.9 552.63-24.9L552.63-24.9Q556.49-24.9 558.26-22.5 560.03-20.1 560.03-15.4L560.03-15.4 560.03 0 555.94 0 555.94-14.85Q555.94-18.3 554.84-19.83 553.74-21.35 551.34-21.35L551.34-21.35Q549.44-21.35 547.99-20.4 546.53-19.45 544.69-17.6L544.69-17.6 544.69 0ZM587.38-10.95L575.88-10.95 575.88-14.1 587.38-14.1 587.38-10.95ZM614.87 0L610.67 0 610.67-29.3 600.77-29.3 600.77-32.8 624.77-32.8 624.77-29.3 614.87-29.3 614.87 0ZM639.07 0L630.67 0 630.67-32.8 638.87-32.8Q646.47-32.8 650.42-28.6 654.37-24.4 654.37-16.55L654.37-16.55Q654.37-12.65 653.37-9.58 652.37-6.5 650.42-4.38 648.47-2.25 645.62-1.13 642.77 0 639.07 0L639.07 0ZM634.82-29.4L634.82-3.4 638.57-3.4Q644.32-3.4 647.2-6.85 650.07-10.3 650.07-16.55L650.07-16.55Q650.07-22.8 647.2-26.1 644.32-29.4 638.57-29.4L638.57-29.4 634.82-29.4ZM665.57 0L661.42 0 661.42-32.8 670.77-32.8Q673.52-32.8 675.79-32.3 678.07-31.8 679.67-30.68 681.27-29.55 682.17-27.7 683.07-25.85 683.07-23.15L683.07-23.15Q683.07-20.55 682.19-18.65 681.32-16.75 679.72-15.5 678.12-14.25 675.89-13.63 673.67-13 670.97-13L670.97-13 665.57-13 665.57 0ZM665.57-29.45L665.57-16.4 670.47-16.4Q674.77-16.4 676.84-18.03 678.92-19.65 678.92-23.15L678.92-23.15Q678.92-26.7 676.74-28.08 674.57-29.45 670.27-29.45L670.27-29.45 665.57-29.45ZM719.11 0L699.71 0 699.71-32.8 718.61-32.8 718.61-29.3 703.86-29.3 703.86-19 716.31-19 716.31-15.45 703.86-15.45 703.86-3.55 719.11-3.55 719.11 0ZM725.01 0L720.71 0 728.66-12.7 721.31-24.3 725.76-24.3 729.01-18.95Q729.56-17.95 730.16-16.93 730.76-15.9 731.41-14.9L731.41-14.9 731.61-14.9Q732.16-15.9 732.71-16.93 733.26-17.95 733.81-18.95L733.81-18.95 736.76-24.3 741.06-24.3 733.71-12.25 741.61 0 737.16 0 733.61-5.65Q732.96-6.75 732.31-7.85 731.66-8.95 730.96-10L730.96-10 730.76-10Q730.11-8.95 729.51-7.88 728.91-6.8 728.31-5.65L728.31-5.65 725.01 0ZM755.16 0.6L755.16 0.6Q752.76 0.6 750.66-0.25 748.56-1.1 747.03-2.73 745.51-4.35 744.63-6.73 743.76-9.1 743.76-12.1L743.76-12.1Q743.76-15.15 744.71-17.53 745.66-19.9 747.26-21.55 748.86-23.2 750.98-24.05 753.11-24.9 755.46-24.9L755.46-24.9Q757.86-24.9 759.56-24.05 761.26-23.2 762.56-22.05L762.56-22.05 760.46-19.35Q759.41-20.3 758.23-20.9 757.06-21.5 755.61-21.5L755.61-21.5Q753.96-21.5 752.56-20.83 751.16-20.15 750.16-18.9 749.16-17.65 748.58-15.93 748.01-14.2 748.01-12.1L748.01-12.1Q748.01-10 748.56-8.3 749.11-6.6 750.08-5.38 751.06-4.15 752.46-3.48 753.86-2.8 755.51-2.8L755.51-2.8Q757.21-2.8 758.63-3.53 760.06-4.25 761.21-5.25L761.21-5.25 763.01-2.5Q761.36-1.05 759.36-0.23 757.36 0.6 755.16 0.6ZM777.16 0.6L777.16 0.6Q774.71 0.6 772.58-0.28 770.46-1.15 768.88-2.78 767.31-4.4 766.41-6.75 765.51-9.1 765.51-12.1L765.51-12.1Q765.51-15.1 766.43-17.48 767.36-19.85 768.88-21.5 770.41-23.15 772.36-24.03 774.31-24.9 776.41-24.9L776.41-24.9Q778.71-24.9 780.53-24.1 782.36-23.3 783.58-21.8 784.81-20.3 785.46-18.2 786.11-16.1 786.11-13.5L786.11-13.5Q786.11-12.85 786.08-12.23 786.06-11.6 785.96-11.15L785.96-11.15 769.56-11.15Q769.81-7.25 771.98-4.98 774.16-2.7 777.66-2.7L777.66-2.7Q779.41-2.7 780.88-3.23 782.36-3.75 783.71-4.6L783.71-4.6 785.16-1.9Q783.56-0.9 781.61-0.15 779.66 0.6 777.16 0.6ZM769.51-14.1L769.51-14.1 782.51-14.1Q782.51-17.8 780.93-19.73 779.36-21.65 776.51-21.65L776.51-21.65Q775.21-21.65 774.03-21.15 772.86-20.65 771.91-19.68 770.96-18.7 770.33-17.3 769.71-15.9 769.51-14.1ZM796.45 0.6L796.45 0.6Q794.1 0.6 793.1-0.8 792.1-2.2 792.1-4.9L792.1-4.9 792.1-35.6 796.2-35.6 796.2-4.6Q796.2-3.6 796.55-3.2 796.9-2.8 797.35-2.8L797.35-2.8Q797.55-2.8 797.73-2.8 797.9-2.8 798.25-2.9L798.25-2.9 798.8 0.2Q798.4 0.4 797.85 0.5 797.3 0.6 796.45 0.6ZM809.2 0.6L809.2 0.6Q806.85 0.6 805.85-0.8 804.85-2.2 804.85-4.9L804.85-4.9 804.85-35.6 808.95-35.6 808.95-4.6Q808.95-3.6 809.3-3.2 809.65-2.8 810.1-2.8L810.1-2.8Q810.3-2.8 810.48-2.8 810.65-2.8 811-2.9L811-2.9 811.55 0.2Q811.15 0.4 810.6 0.5 810.05 0.6 809.2 0.6ZM827.45 0.6L827.45 0.6Q825 0.6 822.87-0.28 820.75-1.15 819.17-2.78 817.6-4.4 816.7-6.75 815.8-9.1 815.8-12.1L815.8-12.1Q815.8-15.1 816.72-17.48 817.65-19.85 819.17-21.5 820.7-23.15 822.65-24.03 824.6-24.9 826.7-24.9L826.7-24.9Q829-24.9 830.82-24.1 832.65-23.3 833.87-21.8 835.1-20.3 835.75-18.2 836.4-16.1 836.4-13.5L836.4-13.5Q836.4-12.85 836.37-12.23 836.35-11.6 836.25-11.15L836.25-11.15 819.85-11.15Q820.1-7.25 822.27-4.98 824.45-2.7 827.95-2.7L827.95-2.7Q829.7-2.7 831.17-3.23 832.65-3.75 834-4.6L834-4.6 835.45-1.9Q833.85-0.9 831.9-0.15 829.95 0.6 827.45 0.6ZM819.8-14.1L819.8-14.1 832.8-14.1Q832.8-17.8 831.22-19.73 829.65-21.65 826.8-21.65L826.8-21.65Q825.5-21.65 824.32-21.15 823.15-20.65 822.2-19.68 821.25-18.7 820.62-17.3 820-15.9 819.8-14.1ZM846.5 0L842.4 0 842.4-24.3 845.8-24.3 846.15-20.8 846.3-20.8Q848.05-22.55 849.97-23.73 851.9-24.9 854.45-24.9L854.45-24.9Q858.3-24.9 860.07-22.5 861.85-20.1 861.85-15.4L861.85-15.4 861.85 0 857.75 0 857.75-14.85Q857.75-18.3 856.65-19.83 855.55-21.35 853.15-21.35L853.15-21.35Q851.25-21.35 849.8-20.4 848.35-19.45 846.5-17.6L846.5-17.6 846.5 0ZM879.34 0.6L879.34 0.6Q876.94 0.6 874.84-0.25 872.74-1.1 871.22-2.73 869.69-4.35 868.82-6.73 867.94-9.1 867.94-12.1L867.94-12.1Q867.94-15.15 868.89-17.53 869.84-19.9 871.44-21.55 873.04-23.2 875.17-24.05 877.29-24.9 879.64-24.9L879.64-24.9Q882.04-24.9 883.74-24.05 885.44-23.2 886.74-22.05L886.74-22.05 884.64-19.35Q883.59-20.3 882.42-20.9 881.24-21.5 879.79-21.5L879.79-21.5Q878.14-21.5 876.74-20.83 875.34-20.15 874.34-18.9 873.34-17.65 872.77-15.93 872.19-14.2 872.19-12.1L872.19-12.1Q872.19-10 872.74-8.3 873.29-6.6 874.27-5.38 875.24-4.15 876.64-3.48 878.04-2.8 879.69-2.8L879.69-2.8Q881.39-2.8 882.82-3.53 884.24-4.25 885.39-5.25L885.39-5.25 887.19-2.5Q885.54-1.05 883.54-0.23 881.54 0.6 879.34 0.6ZM901.34 0.6L901.34 0.6Q898.89 0.6 896.77-0.28 894.64-1.15 893.07-2.78 891.49-4.4 890.59-6.75 889.69-9.1 889.69-12.1L889.69-12.1Q889.69-15.1 890.62-17.48 891.54-19.85 893.07-21.5 894.59-23.15 896.54-24.03 898.49-24.9 900.59-24.9L900.59-24.9Q902.89-24.9 904.72-24.1 906.54-23.3 907.77-21.8 908.99-20.3 909.64-18.2 910.29-16.1 910.29-13.5L910.29-13.5Q910.29-12.85 910.27-12.23 910.24-11.6 910.14-11.15L910.14-11.15 893.74-11.15Q893.99-7.25 896.17-4.98 898.34-2.7 901.84-2.7L901.84-2.7Q903.59-2.7 905.07-3.23 906.54-3.75 907.89-4.6L907.89-4.6 909.34-1.9Q907.74-0.9 905.79-0.15 903.84 0.6 901.34 0.6ZM893.69-14.1L893.69-14.1 906.69-14.1Q906.69-17.8 905.12-19.73 903.54-21.65 900.69-21.65L900.69-21.65Q899.39-21.65 898.22-21.15 897.04-20.65 896.09-19.68 895.14-18.7 894.52-17.3 893.89-15.9 893.69-14.1ZM918.44 0.6L918.44 0.6Q917.19 0.6 916.31-0.28 915.44-1.15 915.44-2.5L915.44-2.5Q915.44-3.95 916.31-4.83 917.19-5.7 918.44-5.7L918.44-5.7Q919.64-5.7 920.51-4.83 921.39-3.95 921.39-2.5L921.39-2.5Q921.39-1.15 920.51-0.28 919.64 0.6 918.44 0.6ZM927.29-21.55L924.79-21.55 923.99-29.9 923.84-34.5 928.24-34.5 928.09-29.9 927.29-21.55ZM936.09-21.55L933.59-21.55 932.79-29.9 932.64-34.5 937.04-34.5 936.89-29.9 936.09-21.55Z" opacity="1" transform="matrix(1,0,0,1,0,0)" fill="#23ed0e" class="slogan-text-1" data-fill-palette-color="secondary" id="text-1"></path></svg></g></svg></g></svg></g></svg></g><g><svg viewBox="0 0 214.48851839999998 214.48851839999998" height="214.48851839999998" width="214.48851839999998"><g><svg></svg></g><g id="icon-0"><svg viewBox="0 0 214.48851839999998 214.48851839999998" height="214.48851839999998" width="214.48851839999998"><g><rect width="195.02567136" height="195.02567136" x="9.731423519999993" y="9.731423519999993" fill="#44c1eb" data-fill-palette-color="accent"></rect><rect width="195.02567136" height="195.02567136" x="19.462847039999993" y="-5.329070518200751e-15" fill="#44c1eb" opacity="0.5" data-fill-palette-color="accent"></rect></g><g transform="matrix(1,0,0,1,27.80406719999999,27.81289388799999)"><svg viewBox="0 0 158.880384 158.862730624" height="158.862730624" width="158.880384"><g><svg xmlns="http://www.w3.org/2000/svg" xmlns:xlink="http://www.w3.org/1999/xlink" version="1.1" x="0" y="0" viewBox="0 0.009000000000000341 90 89.99000000000001" enable-background="new 0 0 90 90" xml:space="preserve" height="158.862730624" width="158.880384" class="icon-cg-0" data-fill-palette-color="quaternary" id="cg-0"><g fill="#ffffff" data-fill-palette-color="quaternary"><g fill="#ffffff" data-fill-palette-color="quaternary"><path d="M85.397 42.805v-9.678C87.947 33.24 90 35.36 90 37.955 90 40.572 87.947 42.692 85.397 42.805z" fill="#ffffff" data-fill-palette-color="quaternary"></path><rect x="40.747" y="33.127" width="41.267" height="9.678" fill="#ffffff" data-fill-palette-color="quaternary"></rect><path d="M75.877 46.189v38.735c0 2.797-2.257 5.053-5.077 5.075H19.201c-2.798-0.022-5.077-2.278-5.077-5.075v-9.656h44.831c4.67 0 8.438-3.768 8.438-8.46v-4.782c0-4.67-3.769-8.46-8.438-8.46H14.124V5.085c0-2.82 2.279-5.076 5.077-5.076h37.363v12.092c0 4.67 3.79 8.46 8.461 8.46h10.853v9.182H39.01c-0.271 0-0.542 0.045-0.79 0.181l-12.725 6.542c-0.564 0.271-0.925 0.857-0.925 1.489 0 0.654 0.361 1.218 0.925 1.512l12.725 6.52c0.248 0.135 0.519 0.204 0.79 0.204H75.877z" fill="#ffffff" data-fill-palette-color="quaternary"></path><path d="M59.947 2.581l13.718 14.596h-8.641c-2.798 0-5.077-2.256-5.077-5.076V2.581z" fill="#ffffff" data-fill-palette-color="quaternary"></path><polygon points="37.318,34.187 37.318,41.722 29.962,37.955   " fill="#ffffff" data-fill-palette-color="quaternary"></polygon><path d="M9.927 61.507V56.95h2.911v7.806c0 0.925 0.767 1.692 1.692 1.692 0.947 0 1.692-0.768 1.692-1.692V56.95h2.911v4.557c0 0.925 0.767 1.692 1.692 1.692 0.948 0 1.692-0.768 1.692-1.692V56.95h2.933v7.806c0 0.925 0.745 1.692 1.692 1.692 0.925 0 1.692-0.768 1.692-1.692V56.95h2.911v4.557c0 0.925 0.745 1.692 1.692 1.692 0.925 0 1.692-0.768 1.692-1.692V56.95h2.911v7.806c0 0.925 0.767 1.692 1.692 1.692 0.925 0 1.692-0.768 1.692-1.692V56.95h2.91v4.557c0 0.925 0.767 1.692 1.692 1.692 0.948 0 1.692-0.768 1.692-1.692V56.95h2.911v7.806c0 0.925 0.767 1.692 1.691 1.692 0.948 0 1.692-0.768 1.692-1.692V56.95h4.941c2.798 0 5.054 2.256 5.076 5.076v4.782c-0.022 2.82-2.278 5.076-5.076 5.076H5.077C2.279 71.885 0 69.629 0 66.809v-4.782c0-2.82 2.279-5.076 5.077-5.076h1.466v4.557c0 0.925 0.767 1.692 1.692 1.692C9.16 63.199 9.927 62.432 9.927 61.507z" fill="#ffffff" data-fill-palette-color="quaternary"></path></g></g></svg></g></svg></g></svg></g></svg></g></svg></g><defs></defs></svg><rect width="395.5199999999999" height="130.79749751032617" fill="none" stroke="none" visibility="hidden"></rect></g></svg></g></svg>